ffmpeg started on 2023-02-27 at 23:23:10
Report written to "D:/java/GitHub/pornMagnetSpringBoot/jiuse911Modeul/Logs/2023-02-27_23-22-53-924_ffreport.log"
Command line:
"D:\\java\\GitHub\\pornMagnetSpringBoot\\ffmpeg.exe" -loglevel warning -i "concat:0.ts|1.ts|2.ts|3.ts|4.ts|5.ts|6.ts|" -map "0:v?" -map "0:a?" -map "0:s?" -metadata "date=2023-02-27T23:23:10.7854847+08:00" -metadata "encoding_tool=" -metadata "title=" -metadata "copyright=" -metadata "comment=" -metadata:s:a:0 "handler_name=" -metadata:s:a:0 "handler=" -c copy -y -bsf:a aac_adtstoasc "D:\\java\\GitHub\\pornMagnetSpringBoot\\Downloads\\\xba\xdc\xc9\xa7\xb5\xc4\xca\xec\xc5\xae.mp4"
ffmpeg version N-94813-g85386c36e3-ffmpeg-for-N_m3u8DL-CLI Copyright (c) 2000-2019 the FFmpeg developers
  built with gcc 8.2.0 (GCC)
  libavutil      56. 35.100 / 56. 35.100
  libavcodec     58. 56.101 / 58. 56.101
  libavformat    58. 32.104 / 58. 32.104
  libavfilter     7. 58.102 /  7. 58.102
  libavresample   4.  0.  0 /  4.  0.  0
  libswresample   3.  6.100 /  3.  6.100
Input #0, mpegts, from 'concat:0.ts|1.ts|2.ts|3.ts|4.ts|5.ts|6.ts|':
  Duration: 00:01:40.27, start: 1.466667, bitrate: 369 kb/s
  Program 1 
    Metadata:
      service_name    : Service01
      service_provider: FFmpeg
    Stream #0:0[0x100]: Video: h264 ([27][0][0][0] / 0x001B), yuv420p(progressive), 320x240, 15 fps, 15 tbr, 90k tbn, 30 tbc
    Stream #0:1[0x101](und): Audio: aac ([15][0][0][0] / 0x000F), 22050 Hz, mono, fltp, 33 kb/s
Output #0, mp4, to 'D:\java\GitHub\pornMagnetSpringBoot\Downloads\很骚的熟女.mp4':
  Metadata:
    date            : 2023-02-27T23:23:10.7854847+08:00
    encoder         : Lavf58.32.104
    Stream #0:0: Video: h264 (avc1 / 0x31637661), yuv420p(progressive), 320x240, q=2-31, 15 fps, 15 tbr, 90k tbn, 90k tbc
    Stream #0:1(und): Audio: aac (mp4a / 0x6134706D), 22050 Hz, mono, fltp, 33 kb/s
Stream mapping:
  Stream #0:0 -> #0:0 (copy)
  Stream #0:1 -> #0:1 (copy)
Press [q] to stop, [?] for help
frame= 1504 fps=0.0 q=-1.0 Lsize=    4263kB time=00:01:40.17 bitrate= 348.6kbits/s speed=2.11e+03x    
video:3814kB audio:391kB subtitle:0kB other streams:0kB global headers:0kB muxing overhead: 1.364241%
